{"title":"Frozen Ground HDRip.mp4","uid":8842893,"size":296168713,"categoryP":"video","categoryS":"movies","magnet":"?xt=urn:btih:eef495e0820187698da608e42d540a9d85301d70&amp;dn=Frozen+Ground+HDRip.mp4&amp;tr=udp%3A%2F%2Ftracker.openbittorrent.com%3A80&amp;tr=udp%3A%2F%2Fopen.demonii.com%3A1337&amp;tr=udp%3A%2F%2Ftracker.coppersurfer.tk%3A6969&amp;tr=udp%3A%2F%2Fexodus.desync.com%3A6969","seeders":1,"leechers":0,"uploader":"globeplus","files":-1,"time":1377292994,"description":"Frozen Ground HDRip.mp4\n\nFormat                                   : MPEG-4\nFormat profile                           : Base Media\nCodec ID                                 : isom\nFile size                                : 282 MiB\nDuration                                 : 1h 45mn\nOverall bit rate                         : 374 Kbps\nWriting application                      : Lavf54.32.101\n\nVideo\n\nID                                       : 1\nFormat                                   : AVC\nFormat/Info                              : Advanced Video Codec\nFormat profile                           : &lt;a class=&quot;__cf_email__&quot; href=&quot;/cdn-cgi/l/email-protection&quot; data-cfemail=&quot;2860414f4068641b0618&quot;&gt;[email&amp;#160;protected]&lt;/a&gt;&lt;script cf-hash='f9e31' type=&quot;text/javascript&quot;&gt;\n/* &lt;![CDATA[ */!function(){try{var t=&quot;currentScript&quot;in document?document.currentScript:function(){for(var t=document.getElementsByTagName(&quot;script&quot;),e=t.length;e--;)if(t[e].getAttribute(&quot;cf-hash&quot;))return t[e]}();if(t&amp;&amp;t.previousSibling){var e,r,n,i,c=t.previousSibling,a=c.getAttribute(&quot;data-cfemail&quot;);if(a){for(e=&quot;&quot;,r=parseInt(a.substr(0,2),16),n=2;a.length-n;n+=2)i=parseInt(a.substr(n,2),16)^r,e+=String.fromCharCode(i);e=document.createTextNode(e),c.parentNode.replaceChild(e,c)}}}catch(u){}}();/* ]]&gt; */&lt;/script&gt;\nFormat settings, CABAC                   : Yes\nFormat settings, ReFrames                : 4 frames\nCodec ID                                 : avc1\nCodec ID/Info                            : Advanced Video Coding\nDuration                                 : 1h 45mn\nBit rate mode                            : Variable\nBit rate                                 : 272 Kbps\nWidth                                    : 720 pixels\nHeight                                   : 304 pixels\nDisplay aspect ratio                     : 2.35:1\nOriginal display aspect ratio            : 2.35:1\nFrame rate mode                          : Constant\nFrame rate                               : 23.976 fps\nColor space                              : YUV\nChroma subsampling                       : 4:2:0\nBit depth                                : 8 bits\nScan type                                : Progressive\nBits/(Pixel*Frame)                       : 0.052\nStream size                              : 205 MiB (73%)\nWriting library                          : x264 core 128 r2216 198a7ea\n                                 \n\nAudio\n\nID                                       : 2\nFormat                                   : AAC\nFormat/Info                              : Advanced Audio Codec\nFormat profile                           : LC\nCodec ID                                 : 40\nDuration                                 : 1h 45mn\nDuration_LastFrame                       : -16ms\nBit rate mode                            : Constant\nBit rate                                 : 96.0 Kbps\nChannel(s)                               : 2 channels\nChannel positions                        : Front: L R\nSampling rate                            : 48.0 KHz\nCompression mode                         : Lossy\nStream size                              : 73.3 MiB (26%)\n\n\nPlot\n\nThe Frozen Ground is based on the true story of Alaskan detective Glenn Flothe (called Sgt. Jack Halcombe in the film). Halcombe sets out to end the murderous rampage of Robert Hansen, a serial killer who has silently stalked the streets of Anchorage for more than 13 years. As the bodies of Anchorage women start to add up, Sgt. Halcombe goes on a personal manhunt to find the killer. When 17-year-old Cindy Paulson escapes Hansen's unspeakable violence, she believes the law will take him down. Instead she finds herself, once again, fighting for her life. With his only ally, Cindy Paulson, Sergeant Halcombe is determined to bring the serial killer to justice.\n\n\n\n\n\n* enjoy ...\n\n","torrent":{"xt":"urn:btih:eef495e0820187698da608e42d540a9d85301d70","amp;dn":"Frozen+Ground+HDRip.mp4","amp;tr":["udp%3A%2F%2Ftracker.openbittorrent.com%3A80","udp%3A%2F%2Fopen.demonii.com%3A1337","udp%3A%2F%2Ftracker.coppersurfer.tk%3A6969","udp%3A%2F%2Fexodus.desync.com%3A6969"],"infoHash":"eef495e0820187698da608e42d540a9d85301d70","infoHashBuffer":{"type":"Buffer","data":[238,244,149,224,130,1,135,105,141,166,8,228,45,84,10,157,133,48,29,112]},"announce":[],"urlList":[]}}